<svg width="128" height="125" viewBox="0 0 128 125" fill="none" xmlns="http://www.w3.org/2000/svg">
<path d="M115.762 7.25781H12.39C10.1173 7.25781 8.28445 9.23728 8.43108 11.51L16.6422 114.882C16.7888 116.935 18.5484 118.548 20.6012 118.548H107.551C109.604 118.548 111.29 116.935 111.51 114.882L119.721 11.51C119.868 9.16397 118.035 7.25781 115.762 7.25781Z" fill="white"/>
<path d="M36.2171 7.99023H8.43115L13.5631 86.0694H36.2171V7.99023Z" fill="#DD0E20"/>
<path d="M119.135 8.06322L91.8623 7.33008V86.0694H113.783L119.135 8.06322Z" fill="#DD0E20"/>
<path d="M82.6245 40.1753C82.1846 42.6679 81.5981 43.9143 81.3049 45.4539C80.9383 47.0668 80.2785 49.4128 79.6186 49.4128C78.9588 49.6327 78.6656 48.8263 78.2257 49.4128C77.9324 49.7794 77.7858 50.2193 77.5659 50.5125C77.4192 50.7325 77.2726 51.099 77.2726 51.3923C77.2726 51.8322 77.2726 53.2984 76.8327 55.2046C76.2462 58.0638 75.1465 60.1899 73.9735 61.5096C71.7741 64.0023 69.7213 64.4421 69.5013 64.5888C69.2081 64.7354 68.6949 64.6621 68.5483 64.5888C68.4016 64.5154 68.255 64.2955 67.9617 64.0756C67.6685 63.7823 67.5952 64.2222 67.5952 64.2955C67.5952 64.3688 67.7418 65.6152 67.4486 66.1283C66.7887 67.3014 66.1289 67.3747 65.8356 68.841C65.689 69.3542 65.8356 70.0873 65.2491 69.7207C63.8562 68.9143 61.8034 66.7149 61.3635 64.5154C61.2169 63.8556 61.3635 63.1225 61.7301 61.8762C61.95 61.143 62.0966 60.3366 62.0966 59.8967C62.0966 59.0902 61.8034 58.3571 62.0966 58.2838C62.6832 58.1371 62.9764 59.6767 63.2697 59.5301C63.7829 59.2369 63.4163 57.6239 63.4163 57.6239C63.4163 57.6239 63.1964 57.1841 62.3899 56.9641C61.8767 56.8175 61.7301 56.4509 62.2433 56.231C62.6098 56.011 63.0497 55.7911 63.6362 55.8644C67.1553 56.3776 68.1817 55.6445 69.5747 55.2779C69.8679 55.2046 70.0145 55.2046 70.2345 55.2779C70.4544 55.3512 71.0409 55.7178 71.1876 56.011C71.3342 56.3043 71.1876 57.4773 71.3342 58.3571C71.5541 59.2369 72.1406 58.4304 72.2873 58.0638C72.4339 57.6973 72.5805 56.8908 72.6538 56.6709C72.6538 56.4509 72.8738 55.5712 73.167 55.2779C73.8269 54.7647 74.0468 54.0316 74.1201 53.7383C74.1934 53.4451 74.4134 52.6386 74.34 51.3923C74.34 50.1459 74.1201 49.9993 73.7535 49.7794C73.4603 49.4861 73.0937 49.5594 72.3606 48.8996C71.7007 48.3131 71.1142 47.2867 70.6744 46.6269C70.1612 45.9671 69.3547 45.3072 68.4749 45.0873C67.5219 44.8674 67.9617 45.7471 67.9617 45.9671C68.0351 46.1137 68.1817 46.9201 67.8884 47.1401C67.5952 47.36 65.689 48.6064 64.0761 48.2398C62.0966 47.7266 61.4368 46.6269 61.3635 45.5272C61.3635 44.794 61.7301 44.0609 62.17 43.1811C62.4632 42.6679 62.5365 41.8615 62.6098 41.055C62.6832 40.3952 62.9031 39.4421 62.9764 39.1489C63.0497 38.9289 63.343 38.6357 63.8562 38.709C64.3694 38.709 64.7359 39.0022 64.8093 39.4421C65.1758 41.055 65.689 41.4216 65.909 41.5682C66.1289 41.7149 66.4955 41.4216 66.5688 41.3483C66.7154 41.275 67.082 40.9084 66.9354 40.6885C66.7887 40.3952 66.6421 40.1753 66.6421 40.0286C66.5688 39.7354 66.9354 39.7354 67.0087 39.8087C67.5952 40.3219 68.1817 40.3219 69.2814 40.5418C71.1876 40.8351 71.4075 40.1753 72.7271 40.3952C72.8738 40.3952 73.2403 40.5418 73.3137 40.7618C73.387 40.9084 73.5336 41.275 73.6802 41.3483C73.8268 41.4216 74.1934 41.4216 74.4134 41.4949C74.7066 41.5682 75.1465 41.4949 75.0732 42.0081C74.8532 43.3278 73.3137 43.7676 72.5805 43.841C72.2873 43.9143 72.1406 43.9143 72.0673 43.9876C71.9207 44.1342 71.9207 44.5741 72.0673 44.794C72.2139 45.014 72.8005 45.014 73.6069 44.8674C74.4134 44.7207 75.2198 44.2808 75.8796 43.3278C76.5395 42.3014 76.906 39.9553 76.9793 39.5154C77.0527 39.0756 77.1993 38.3424 77.4925 38.1958C77.7125 38.0492 78.8122 37.6826 78.9588 37.7559C79.1788 37.7559 79.2521 37.9025 79.3987 38.2691C79.472 38.709 79.3254 41.275 79.3254 41.6415C79.3254 42.0814 79.5453 42.0814 79.6186 42.0081C79.8386 41.8615 80.5717 41.4216 80.7183 40.9084C80.865 40.5418 80.4984 39.9553 80.645 39.4421C80.9383 38.6357 81.1582 38.3424 81.3049 38.4157C82.6245 38.3424 82.8444 38.7823 82.6245 40.1753ZM67.3752 53.9583C67.0087 54.1049 65.8356 54.3981 65.2491 54.3981C64.6626 54.3981 62.9031 54.5448 62.6098 54.5448C62.2433 54.5448 61.7301 54.3248 61.3635 53.9583C61.2902 53.8849 61.2169 53.5917 61.5101 53.5917C62.0966 53.5917 63.123 53.2251 66.7154 53.5917C67.082 53.5917 67.3019 53.665 67.3752 53.665C67.5219 53.665 67.8151 53.8116 67.3752 53.9583ZM58.6509 52.492C56.8914 52.492 56.1582 51.8322 56.0116 51.6122C55.865 51.3923 56.0849 51.2457 56.3049 51.2457C56.7447 51.099 57.4046 50.7325 57.6978 50.5125C57.9911 50.2926 58.7975 49.7794 59.2374 49.4861C59.4574 49.3395 60.5571 48.8996 61.2169 49.3395C62.17 49.9993 63.123 50.4392 64.7359 50.3659C65.8356 50.2926 65.7623 49.4128 66.6421 49.1929C67.4486 48.9729 67.5952 48.753 67.8151 48.6064C68.1084 48.533 68.4016 48.4597 68.6949 48.753C69.1348 49.1929 69.2814 49.4861 69.7946 50.0726C70.4544 50.8791 71.2609 51.2457 71.4808 51.2457C71.7007 51.319 71.9207 51.4656 71.9207 51.5389C71.9207 51.6122 71.8474 51.8322 71.1142 52.0521C68.7682 52.7119 66.2755 52.272 64.9559 51.7588C64.2961 51.4656 63.6362 51.3923 62.9031 51.7588C62.2433 52.1987 60.2638 52.492 58.6509 52.492ZM57.8444 62.0961C56.5248 62.1694 53.0791 60.0433 51.5395 54.1049C51.1729 52.5653 52.126 51.319 52.7125 51.099C53.0791 50.9524 53.2257 50.9524 53.3723 50.8791C53.5189 50.8791 54.1054 50.8791 54.1054 51.5389C54.1054 52.1254 54.5453 56.6709 55.7183 58.3571C56.0116 58.797 56.3049 58.797 56.4515 58.4304C56.5981 58.0638 56.8181 57.6239 56.8181 57.4773C56.8914 57.3307 57.3313 56.6709 57.4046 57.1841C57.6978 58.2838 58.3576 60.4832 58.5776 61.0697C59.0908 62.0961 58.3576 62.0961 57.8444 62.0961ZM50.8796 44.4275C50.8063 44.0609 50.953 43.4011 51.906 44.0609C52.0527 44.1342 52.4925 44.3542 53.0057 44.5008C53.299 44.5741 53.5189 44.4275 53.5922 44.2808C53.6656 44.0609 53.9588 43.621 53.5189 43.4011C53.079 43.1811 52.0527 43.0345 51.4661 41.5682C51.3928 41.275 51.5395 40.9817 51.6861 40.9084C51.8327 40.8351 52.0527 40.8351 52.2726 41.055C52.4925 41.2017 52.8591 41.6415 53.2257 41.6415C53.5922 41.6415 53.5922 41.4949 53.6656 41.4216C53.9588 41.1283 54.7653 39.882 56.4515 40.102C57.1846 40.1753 57.7711 40.3219 58.0644 40.3952C58.211 40.3952 58.7242 40.3952 59.1641 40.3219C59.6773 40.2486 60.4104 40.102 60.0439 40.4685C59.7506 40.8351 59.4573 40.9817 59.7506 41.3483C59.7506 41.3483 59.7506 41.4216 59.8239 41.4216C60.0439 41.7882 60.0439 42.2281 59.8239 42.5213V42.5946C59.4573 43.1078 58.6509 43.621 57.1113 43.7676C56.3782 43.841 56.3049 43.7676 56.3049 44.2075C56.3049 44.3542 56.3049 44.4275 56.3049 44.5741C56.3782 44.794 56.4515 44.8674 56.9647 44.8674C57.3312 44.8674 57.9911 44.794 57.9911 44.794C58.1377 44.7207 58.3576 44.8674 58.211 45.014L58.1377 45.1606C57.7711 45.6005 57.6978 46.0404 57.6245 46.3336C57.6245 46.5536 57.4779 46.7735 57.2579 46.8468C57.038 46.9935 56.0849 47.1401 55.3518 47.7999C54.6186 48.3864 53.079 48.8996 52.4192 48.1665C51.6861 47.36 51.1729 45.6738 50.8796 44.4275ZM50.4398 36.9495C50.2198 36.9495 50.0732 36.8761 49.8532 36.8028C49.56 36.7295 49.4134 36.8028 49.34 36.6562C49.2667 36.5096 49.2667 36.363 49.4134 36.2896C49.56 36.2163 49.7066 36.2896 49.8532 36.2163C50.1465 36.143 50.5131 35.7764 50.8063 36.2163C50.8796 36.5096 50.733 36.9495 50.4398 36.9495ZM47.8738 46.4069C47.2139 45.9671 47.2139 45.3805 47.0673 44.794C46.7007 43.5477 46.3342 42.0814 45.9676 40.8351C45.7477 40.102 45.7477 38.3424 46.7008 38.3424C47.2139 38.3424 47.5805 38.4891 47.8005 39.0022C48.167 40.102 47.5072 39.882 47.6538 41.2017C47.8005 42.0814 47.9471 42.9612 48.2403 44.5008C48.387 45.2339 48.6069 46.9201 47.9471 46.4803M45.8943 29.1049C46.2609 28.0785 46.9207 27.272 47.4339 26.6122C47.8738 26.0257 47.6538 25.2926 47.4339 24.7061C47.2873 24.1196 46.9207 23.4597 46.8474 23.3131C46.7741 23.1665 46.7741 23.0932 46.8474 23.0198C46.8474 23.0198 46.9207 23.0198 46.9207 22.9465L47.7271 22.8732C50.0732 22.58 52.126 21.7735 52.7858 21.4069C53.079 21.2603 53.4456 21.1137 53.7389 20.9671C54.1054 20.8204 54.5453 20.6738 54.9119 20.6738C55.2052 20.6005 55.5717 20.6005 55.865 20.5272C56.3049 20.4539 57.038 20.8204 56.8914 20.8937C56.5248 21.1137 54.692 21.5536 53.0791 23.4597C52.126 24.6327 51.906 25.3659 51.5395 25.8791C51.1729 26.3923 50.953 26.5389 50.4398 26.9788C50.2198 27.1987 49.7066 27.5653 49.4867 28.2251C49.2667 28.8849 48.387 31.1577 48.2403 34.8234C48.2403 35.2632 48.167 35.7031 47.7271 35.8498C47.3606 35.9964 47.1406 36.2163 47.0673 35.9964C46.8474 35.1899 46.3342 33.4304 46.1876 32.3307C46.1142 31.9641 46.0409 31.6709 45.9676 31.3043C45.821 30.3512 45.6744 29.5448 45.8943 29.1049ZM53.0057 37.9759C52.5659 38.2691 52.1993 38.5624 51.8327 38.7823C51.4661 39.0022 50.8796 38.7823 51.0263 38.2691C51.0996 37.9759 51.4661 37.316 52.126 37.2427C52.1993 37.2427 52.4925 37.1694 52.7858 37.1694C53.079 37.1694 53.4456 37.0961 53.5922 37.0961C54.0321 37.0961 54.1054 37.4627 53.8122 37.6093C53.5922 37.6093 53.299 37.8292 53.0057 37.9759ZM53.5922 38.7823C53.7389 38.709 53.7389 38.709 54.1054 38.4891C54.3987 38.3424 54.692 38.1225 54.9852 37.9759C55.5717 37.6093 56.5981 37.2427 57.1113 37.2427C57.4779 37.2427 57.9911 37.3893 58.3576 37.7559C58.6509 38.1225 58.7975 38.4891 58.3576 38.4157C57.9178 38.3424 57.4779 38.1958 56.6714 38.4157C55.7917 38.6357 55.2051 38.9289 54.7653 39.1489C54.3254 39.3688 53.8855 39.3688 53.7389 39.3688C53.5922 39.2955 53.1524 39.0756 53.5922 38.7823ZM60.1905 46.7002C60.2638 46.9201 60.3371 47.2134 60.2638 47.36C60.2638 47.5066 59.6773 47.7266 59.1641 46.9934C58.7242 46.2603 58.9442 45.3805 59.1641 45.0873C59.604 44.5741 60.2638 44.9407 60.1905 45.1606C59.9705 45.8204 60.1172 46.4803 60.1905 46.7002ZM74.4867 39.7354C74.34 39.8087 73.6802 39.5888 73.4603 39.5154C73.0937 39.2955 72.8005 39.1489 72.3606 38.709C72.0673 38.4157 71.4075 38.2691 70.8943 38.3424C70.4544 38.3424 70.0145 38.4891 69.7213 38.5624C69.428 38.6357 69.3547 38.3424 69.5013 38.1958C69.5747 38.0492 70.0878 37.6826 71.0409 37.3893C71.1876 37.316 71.4808 37.3893 71.6274 37.3893C72.0673 37.4627 72.5805 37.6826 72.8738 38.0492C73.2403 38.4157 73.9735 39.0022 74.34 39.2955C74.4867 39.4421 74.9266 39.5154 74.4867 39.7354ZM74.0468 38.0492C74.0468 38.0492 73.4603 37.6093 73.2403 37.316C73.167 37.1694 73.167 37.0228 73.4603 37.0228C74.4134 37.0228 75.2198 37.0228 75.6597 37.316C75.9529 37.536 75.953 38.1225 75.8063 38.4157C75.6597 38.7823 75.2931 38.709 75.0732 38.6357C74.9266 38.6357 74.0468 38.0492 74.0468 38.0492ZM78.7389 36.7295C78.5922 36.8761 78.4456 36.8028 78.1524 36.8761C77.9324 36.9495 77.7858 37.0228 77.5659 37.0228C77.2726 37.0228 77.0527 36.5829 77.2726 36.363C77.5659 35.9964 77.9324 36.2896 78.2257 36.363C78.3723 36.363 78.5189 36.363 78.6656 36.363C78.8122 36.4363 78.8122 36.5096 78.7389 36.7295ZM51.9793 18.7676C52.126 18.5477 52.4925 18.2545 52.7858 17.9612C53.1524 17.6679 54.9119 16.3483 56.5981 15.9084C56.8914 15.8351 56.9647 15.7618 57.1846 15.6885C57.4046 15.6152 57.6245 15.102 57.1113 15.0286C56.5981 14.9553 56.3782 14.9553 56.0849 15.0286C55.7917 15.0286 55.645 14.882 55.865 14.6621C56.0849 14.4421 56.4515 14.2222 57.1113 13.9289C58.5776 13.3424 61.1436 13.0492 62.3899 12.9025C64.0028 12.7559 64.1494 12.7559 65.1758 12.8292C66.1289 12.9025 66.862 13.0492 67.2286 13.1225C69.0615 13.4157 71.1142 14.2955 73.0204 15.3219C73.9735 15.9084 74.9266 16.5682 75.8063 17.2281C78.4456 19.2808 81.5248 23.2398 81.0849 31.5976C81.0116 32.5506 80.9383 33.1371 80.865 33.3571C80.7917 33.577 80.4984 34.0169 80.2785 33.4304C79.692 31.6709 79.0321 28.5184 77.4192 26.0257C77.1993 25.6591 76.8327 25.7325 76.906 26.099C76.906 26.2457 76.9793 27.8586 76.9793 28.1518C76.6861 30.2046 77.3459 29.3981 78.299 31.5976C78.5922 32.2574 78.9588 33.6503 79.0321 34.4568C79.0321 34.6767 79.1054 34.8967 79.1054 35.1899C79.1054 35.4832 78.9588 35.4832 78.9588 35.4832C78.299 35.4832 77.1993 35.1899 76.6128 35.1899C75.9529 35.1899 71.2609 35.1166 69.5013 35.2632C67.7418 35.4099 66.7887 35.9964 65.7623 36.8761C65.6157 37.0228 65.3958 37.1694 65.2491 37.1694C65.1758 37.1694 65.1025 37.2427 65.0292 37.1694C64.9559 37.1694 64.8093 37.0961 64.5893 37.0961C64.1494 37.0228 63.6362 36.9495 63.1963 37.0961C62.7565 37.2427 62.6098 37.316 62.0966 37.0961C61.4368 36.7295 60.4837 35.1899 56.9647 35.1899C54.9852 35.1899 52.4192 35.1166 50.953 35.1899C50.4398 35.1899 50.2198 35.2632 50.0732 35.2632C50.0732 35.1899 50.0732 35.1166 50.0732 35.1166C50.0732 32.3307 51.8327 32.9905 52.0527 32.2574C52.5659 30.4979 52.7125 26.1723 55.7917 23.533C57.2579 22.2867 58.0644 22.2134 59.4573 22.2134C60.9236 22.2134 62.3899 22.58 63.123 22.9465C63.7095 23.2398 64.0028 23.4597 64.2227 23.2398C64.4427 23.0932 65.1025 22.5066 65.3224 22.2867C65.6157 22.0668 65.4691 21.7735 65.2491 21.5536C65.0292 21.3336 62.8298 18.5477 59.384 18.0345C58.5776 17.8879 58.0644 17.8146 57.3312 17.8146C56.9647 17.8146 56.5981 17.8146 55.7183 17.8879C54.3987 18.0345 52.7125 18.7676 51.6128 19.2075C51.6861 19.2075 51.906 18.841 51.9793 18.7676ZM50.8796 57.4773C50.8796 58.8703 51.7594 62.6826 56.5248 66.275C58.5043 67.7413 59.4573 68.4011 59.6773 68.621C59.8239 68.6943 58.9442 68.6943 58.7242 68.6943C58.3576 68.6943 57.038 68.621 56.0849 68.7676C55.1318 68.9143 55.2785 69.1342 55.2052 69.794C55.1318 70.3072 55.2052 71.187 55.2052 71.8468C55.2052 72.58 55.1318 73.0932 55.4251 73.3864C55.7183 73.753 55.9383 73.753 57.1846 73.6797C58.3576 73.6064 61.7301 73.6064 62.0966 73.533C62.6098 73.4597 62.5365 73.6064 62.2433 74.2662C61.7301 75.3659 60.0439 80.3512 57.4779 85.1166C57.1113 85.7764 58.1377 85.4832 59.0175 85.8498C60.5571 86.5829 60.5571 86.8028 60.9236 85.9964C61.3635 85.1166 63.6362 79.838 64.0028 78.1518C64.0761 77.9319 64.1494 77.7852 64.1494 78.0785C64.1494 78.2984 64.2227 85.0433 64.0028 87.1694C64.0028 87.316 64.0028 87.3893 64.0761 87.4627C64.2227 87.6093 64.3694 87.6093 64.516 87.6826C65.3225 87.3893 66.2022 87.2427 67.0087 87.3893C67.082 87.3893 67.1553 87.3893 67.2286 87.316C67.3019 87.316 67.3019 87.2427 67.3019 87.1694C67.3752 87.0228 67.3752 86.9495 67.4486 86.8028C67.5219 86.6562 67.5219 86.4363 67.5219 86.2896C67.5219 86.2163 67.5219 86.0697 67.5219 85.9964C67.5219 85.8498 67.5219 85.7031 67.5219 85.5565C67.5219 85.4099 67.5219 85.1899 67.5219 85.0433C67.5219 84.8234 67.5219 84.6767 67.5219 84.4568C67.5219 84.2369 67.5219 84.0169 67.5219 83.797C67.5219 83.577 67.5219 83.6503 67.5219 83.4304C67.5219 83.2105 67.5219 82.9172 67.5219 82.6973C67.5219 82.404 67.5219 82.1841 67.4486 81.8908C67.4486 81.5976 67.4486 81.3043 67.3752 81.0844C67.3752 80.7911 67.3019 80.4979 67.3019 80.2046C67.3019 79.9113 67.2286 79.6181 67.2286 79.3248C67.2286 79.0316 67.1553 78.7383 67.1553 78.4451C67.1553 78.1518 67.082 77.8586 67.0087 77.5653C66.9354 77.272 66.9354 76.9788 66.862 76.6855C66.7887 76.3923 66.7887 76.319 66.7154 76.0257C66.6421 75.7325 66.5688 75.5125 66.5688 75.2193C66.4955 74.9993 66.4222 74.7061 66.3488 74.4861C66.2755 74.2662 66.2022 74.1196 66.1289 73.8996C66.1289 73.8996 66.0556 73.6064 66.0556 73.533C66.0556 73.4597 66.2022 73.533 66.3488 73.4597H66.4222C67.3019 73.3131 68.7682 73.3864 69.1348 73.4597C69.5013 73.4597 71.1876 73.6064 71.6274 73.6797C72.0673 73.753 72.6538 73.8263 72.6538 72.4333C72.6538 72.0668 72.6538 71.8468 72.6538 71.4803C72.6538 71.4069 72.6538 71.4069 72.6538 71.3336C72.6538 71.2603 72.6538 71.187 72.6538 71.0404C72.6538 70.9671 72.6538 70.9671 72.6538 70.8937C72.6538 70.8204 72.6538 70.8204 72.6538 70.7471C72.6538 70.6738 72.6538 70.6738 72.6538 70.6005C72.6538 70.5272 72.6538 70.4539 72.6538 70.3805V70.3072C72.6538 70.2339 72.6538 70.2339 72.6538 70.1606V70.0873C72.6538 70.014 72.6538 70.014 72.6538 70.014C72.6538 69.9407 72.6538 69.9407 72.6538 69.8674C72.6538 69.5008 72.6538 68.841 71.9207 68.6943C71.1876 68.4744 69.7946 68.4744 68.6216 68.5477C68.4749 68.5477 68.4016 68.5477 68.4749 68.4744C68.7682 68.2545 70.4544 67.3014 72.5072 65.5418C74.7066 63.5624 75.733 62.536 76.3928 61.0697C76.3928 61.0697 78.8122 56.3776 78.6656 52.4187C78.6656 51.6122 78.7389 51.6855 79.2521 51.6855C79.3987 51.6855 79.9852 51.6855 80.2785 51.4656C81.3049 51.2456 82.1846 47.7266 82.1846 47.7266C82.1846 47.7266 83.7242 42.448 84.0908 40.2486C84.4573 38.3424 84.3107 37.1694 83.1377 36.6562L82.9178 36.5096C82.8444 36.4363 82.7711 36.363 82.8444 36.2896C82.8444 36.2163 82.9178 36.143 82.9178 36.0697C83.5043 34.0902 84.5307 31.5242 84.3107 30.4978C84.2374 30.2046 84.0175 30.1313 83.9442 30.058C83.7975 29.9847 83.3576 29.4715 83.211 29.1049C83.211 29.0316 83.211 29.0316 83.211 28.9583C82.9178 25.2193 81.5248 20.4539 77.5659 16.3483C77.5659 16.3483 77.2726 16.1283 77.126 15.9817C76.7594 15.6885 76.3195 15.3219 75.8796 14.882C74.8532 14.0756 73.9735 13.4891 72.2139 12.6093C72.0673 12.536 70.7477 11.9495 68.8415 11.4363C68.6949 11.363 68.4749 11.363 68.3283 11.2896C68.0351 11.2163 67.5952 11.143 67.082 11.0697C65.909 10.8498 64.5893 10.7764 63.1963 10.8498C63.0497 10.8498 62.8298 10.8498 62.7565 10.8498C62.6832 10.8498 62.6098 10.8498 62.5365 10.8498C62.4632 10.8498 62.3166 10.8498 62.2433 10.8498C61.95 10.8498 61.5834 10.9231 61.1436 10.9964C60.4837 11.0697 59.8239 11.2163 59.384 11.2896C58.8708 11.4363 58.2843 11.5096 57.4046 11.8028C57.038 11.8762 56.7447 12.0228 56.3782 12.0961C56.3049 12.0961 56.1582 12.1694 56.0849 12.1694C55.7183 12.316 55.3518 12.3893 54.9852 12.536C54.692 12.6093 53.5922 13.1225 53.3723 13.1958C53.2257 13.2691 53.079 13.3424 52.9324 13.4157C52.126 13.6357 51.9793 14.1489 51.906 14.3688C51.906 14.5154 51.8327 14.6621 51.7594 14.8087C50.5864 17.2281 47.9471 17.448 46.8474 17.5213C46.5541 17.5213 46.3342 17.5946 46.4075 17.8146C46.6274 18.5477 47.8738 19.794 48.6802 20.0873C48.6802 20.2339 48.0204 20.3072 47.8738 20.3805C47.5805 20.4539 46.2609 20.3805 46.1876 20.3805C44.7213 20.5272 44.2814 21.4803 44.1348 21.9935C44.0615 22.1401 44.1348 22.2867 44.2081 22.4333C44.5013 22.9465 44.8679 23.3131 45.0878 23.9729C45.1612 24.1196 45.2345 24.3395 45.2345 24.5594C45.2345 24.8527 45.4544 25.1459 45.2345 25.6591C44.7213 26.6122 43.4749 26.9055 43.3283 27.8586C43.0351 29.1782 43.5483 30.1313 44.0615 32.3307C44.428 33.8703 44.7946 35.4832 45.0878 36.143C45.0878 36.2163 45.0878 36.2163 45.0145 36.2163C44.9412 36.2163 44.7213 36.2896 44.648 36.2896C43.9148 36.5829 43.6949 37.1694 43.6216 38.2691C43.4749 40.6885 45.2345 44.5008 45.821 47.7266C46.0409 48.8263 46.4808 50.5858 47.3606 51.2457C47.5805 51.3923 47.9471 51.5389 48.2403 51.5389C48.9002 51.6855 49.1934 51.2457 49.1934 51.9055C49.1934 52.0521 49.2667 52.4187 49.2667 52.6386C49.6333 55.2046 50.8796 57.4773 50.8796 57.4773Z" fill="#2A2422"/>
<path d="M97.4338 92.3738C96.0408 92.0072 94.208 91.6406 91.9353 91.6406C80.1317 91.6406 77.1259 98.3122 76.6127 102.858C76.0995 107.916 79.6185 112.975 88.2696 112.975C91.9353 112.975 94.2813 112.315 95.1611 112.095C95.381 112.022 95.5276 111.875 95.6009 111.655L96.1141 109.089C96.1875 108.723 95.8209 108.356 95.4543 108.503C94.5012 108.796 92.815 109.236 90.6889 109.236C86.51 109.236 83.5775 106.743 83.9441 102.491C84.3106 98.3122 87.0965 95.1597 90.9822 95.1597C93.3282 95.1597 94.3546 96.406 94.2813 98.0189C94.2813 98.0189 94.2813 98.0189 94.2813 98.0922C94.2813 98.3855 94.5012 98.6054 94.7945 98.6054H96.3341C96.554 98.6054 96.774 98.4588 96.8473 98.1655L97.947 93.1802C97.947 92.8136 97.727 92.4471 97.4338 92.3738Z" fill="#2A2422"/>
<path d="M48.5335 92.3754L48.2403 93.6951C48.167 93.9883 48.3136 94.2816 48.6069 94.3549C49.1201 94.5748 49.1934 95.0147 48.7535 95.3813L41.4954 101.393L42.7418 95.6745C42.9617 94.7948 43.6215 94.4282 44.0614 94.2816H44.1347C44.3547 94.2083 44.5013 94.0616 44.5013 93.8417L44.7945 92.5221C44.8679 92.2288 44.6479 91.9355 44.2814 91.9355H34.9705C34.6772 91.9355 34.4573 92.1555 34.384 92.3754L34.0907 93.7684C34.0174 94.0616 34.1641 94.3549 34.4573 94.4282C34.5306 94.4282 34.5306 94.4282 34.5306 94.4282C35.1171 94.6482 35.777 95.1614 35.4837 96.5543L33.2843 106.745C32.6978 109.531 31.7447 110.117 30.8649 110.191C30.645 110.191 30.4251 110.411 30.3517 110.631L30.0585 111.95C29.9852 112.317 30.2051 112.61 30.5717 112.61H40.3957C40.6157 112.61 40.8356 112.463 40.9089 112.243L41.2755 110.704C41.3488 110.484 41.2022 110.191 40.9822 110.117H40.9089C40.3957 109.897 39.7359 109.458 39.8825 108.651L41.0555 103.446C44.9412 110.631 46.2608 112.683 50.9529 112.683H55.2051C55.4251 112.683 55.645 112.537 55.7183 112.317L56.0116 110.997C56.0849 110.631 55.8649 110.337 55.4984 110.337C54.472 110.337 53.8855 110.044 52.8591 108.724L47.4338 101.32L54.5453 95.4546C55.4984 94.7215 56.6714 94.5015 57.3312 94.4282C57.3312 94.4282 57.3312 94.4282 57.4045 94.4282C57.6245 94.4282 57.8444 94.2816 57.8444 93.9883L58.1377 92.6687C58.211 92.3754 57.991 92.0089 57.6245 92.0089H49.0467C48.8268 91.9355 48.5335 92.1555 48.5335 92.3754Z" fill="#2A2422"/>
<path d="M74.7064 98.0939H76.3926C76.6125 98.0939 76.8325 97.9473 76.9058 97.654L78.0055 92.5954C78.0788 92.3021 77.8589 91.9355 77.4923 91.9355H60.1169C59.8237 91.9355 59.6037 92.1555 59.5304 92.3754L59.2372 93.7684C59.1639 94.0616 59.3105 94.2816 59.6037 94.4282H59.6771C60.2636 94.6482 61.07 95.2347 60.7035 96.5543L57.2577 112.024C57.1844 112.317 57.4043 112.683 57.7709 112.683H65.6155C65.8354 112.683 66.0554 112.537 66.1287 112.243L66.4952 110.704C66.5685 110.484 66.4219 110.264 66.202 110.117H66.1287C65.6155 109.897 64.8823 109.311 65.1023 108.211C65.1023 108.065 65.8354 104.692 65.8354 104.692H72.507C72.7269 104.692 72.9468 104.546 73.0202 104.252L73.68 101.393C73.7533 101.1 73.5334 100.733 73.1668 100.733H66.7152L67.8882 95.2347H72.3603C73.8266 95.2347 74.2665 95.9678 74.1932 97.2874C74.1932 97.2874 74.1932 97.2875 74.1932 97.3608C74.1932 97.8007 74.4131 98.0939 74.7064 98.0939Z" fill="#2A2422"/>
<path d="M115.762 7.25781H12.39C10.1173 7.25781 8.28445 9.23728 8.43108 11.51L16.6422 114.882C16.7888 116.935 18.5484 118.548 20.6012 118.548H107.551C109.604 118.548 111.29 116.935 111.51 114.882L119.721 11.51C119.868 9.16397 118.035 7.25781 115.762 7.25781Z" stroke="white" stroke-width="4"/>
</svg>
